<?xml version="1.0" encoding="utf-8"?>
<svg viewBox="0 0 256 256" width="64" height="64" xmlns="http://www.w3.org/2000/svg">
  <path fill="#8C3F0A" d="M191.68 122.456v26.143a2 2 0 0 0 2 2h11.63a2 2 0 0 0 2-2v-26.143h-15.63z"/>
  <path fill="#7C3108" d="M202.31 122.456v21.143a2 2 0 0 1-2 2h-8.63v3a2 2 0 0 0 2 2h11.63a2 2 0 0 0 2-2v-26.143h-5z"/>
  <path fill="#91B56B" d="M223.004 85.635h-47.018l-15.968 29.437c-1.807 3.332.605 7.384 4.395 7.384h70.164c3.79 0 6.202-4.052 4.395-7.384l-15.968-29.437z"/>
  <path fill="#76A34F" d="m238.972 115.073-15.968-29.438h-2.288l13.256 24.438c1.807 3.332-.605 7.384-4.395 7.384h-70.163c.003 2.615 2.091 5 4.999 5h70.164c3.79-.001 6.202-4.053 4.395-7.384z"/>
  <path fill="#91B56B" d="M213.942 54.918h-28.894c-3.856 0-6.26-4.18-4.323-7.513l14.447-24.851c1.928-3.316 6.717-3.316 8.645 0l14.447 24.851c1.939 3.334-.466 7.513-4.322 7.513z"/>
  <path fill="#76A34F" d="m218.265 47.406-14.447-24.851a4.928 4.928 0 0 0-3.495-2.411l12.942 22.262c1.938 3.333-.467 7.513-4.323 7.513h-28.897c.004 2.608 2.087 5 5.003 5h28.894c3.856-.001 6.261-4.18 4.323-7.513z"/>
  <path fill="#91B56B" d="m228.409 77.918-14.886-23h-28.055l-14.886 23c-2.153 3.327.235 7.717 4.198 7.717h49.433c3.961 0 6.349-4.39 4.196-7.717z"/>
  <path fill="#76A34F" d="m228.409 77.918-14.886-23h-1.764l11.65 18c2.153 3.327-.235 7.717-4.198 7.717h-49.435c.007 2.597 2.071 5 5.002 5h49.433c3.963 0 6.351-4.39 4.198-7.717z"/>
  <path fill="#8C3F0A" d="M37.578 55.903h127.5c9.941 0 18 8.059 18 18 0 17.221-13.96 31.181-31.181 31.181H50.759c-17.221 0-31.181-13.96-31.181-31.181 0-9.942 8.059-18 18-18z"/>
  <path fill="#F79219" d="M66.416 152.232h69.824c6.18 0 12.094 1.128 17.557 3.178V65.903H48.859v89.508a49.866 49.866 0 0 1 17.557-3.179z"/>
  <path fill="#FFD2C0" d="M147.328 73.566v17.592c0 3.325-.361 6.564-1.031 9.689.342.026.683.052 1.031.052 7.548 0 13.667-6.119 13.667-13.667s-6.119-13.666-13.667-13.666z"/>
  <path fill="#FCC4AE" d="M155.937 76.624a13.601 13.601 0 0 1 3.058 8.609c0 7.092-5.402 12.92-12.316 13.598a45.635 45.635 0 0 1-.38 2.009c.342.026.681.059 1.029.059 7.548 0 13.667-6.119 13.667-13.667 0-4.283-1.974-8.103-5.058-10.608z"/>
  <path fill="#F2AD97" d="M147.328 80.232v10.926c0 1.032-.046 2.053-.113 3.069.038.001.075.006.113.006a7 7 0 0 0 0-14.001z"/>
  <path fill="#FFD2C0" d="M55.328 91.158V73.566c-7.548 0-13.667 6.119-13.667 13.667S47.78 100.9 55.328 100.9c.348 0 .69-.026 1.031-.052a46.18 46.18 0 0 1-1.031-9.69z"/>
  <path fill="#F2AD97" d="M55.328 91.158V80.232a7 7 0 1 0 0 14c.038 0 .075-.005.113-.006a46.502 46.502 0 0 1-.113-3.068z"/>
  <path fill="#478CF7" d="M176.24 243.226H26.416c-5.523 0-10-4.477-10-10v-30.994c0-27.614 22.386-50 50-50h69.824c27.614 0 50 22.386 50 50v30.994c0 5.523-4.477 10-10 10z"/>
  <path fill="#76A34F" d="M176.24 243.226H26.416c-5.523 0-10-4.477-10-10v-30.994c0-27.614 22.386-50 50-50h69.824c27.614 0 50 22.386 50 50v30.994c0 5.523-4.477 10-10 10z"/>
  <path fill="#91B56B" d="M22.416 225.174a2 2 0 0 1-2-2v-20.941a45.792 45.792 0 0 1 7.271-24.799 2 2 0 0 1 3.366 2.162 41.799 41.799 0 0 0-6.637 22.637v20.941a2 2 0 0 1-2 2zm11.86-50.963a2 2 0 0 1-1.458-3.368l.179-.19a2 2 0 1 1 2.917 2.736l-.179.19c-.393.42-.925.632-1.459.632z"/>
  <path fill="#5A7A39" d="m164.907 218.741-11.667 5.976a2.002 2.002 0 0 1-1.824 0l-11.667-5.976a2 2 0 0 1-1.088-1.78V195.85a2 2 0 0 1 2-2h23.333a2 2 0 0 1 2 2v21.111a1.996 1.996 0 0 1-1.087 1.78zm-102 0-11.667 5.976a2.002 2.002 0 0 1-1.824 0l-11.667-5.976a2 2 0 0 1-1.088-1.78V195.85a2 2 0 0 1 2-2h23.333a2 2 0 0 1 2 2v21.111a1.996 1.996 0 0 1-1.087 1.78z"/>
  <path fill="#648940" d="M166.241 162.232a49.773 49.773 0 0 1 10 30v30.994c0 5.523-4.477 10-10 10H16.416c0 5.523 4.477 10 10 10H176.24c5.523 0 10-4.477 10-10v-30.994c0-16.357-7.856-30.878-19.999-40z"/>
  <path fill="#5A7A39" d="M168.998 164.475c7.62 8.775 12.243 20.223 12.243 32.757v30.994c0 5.523-4.477 10-10 10H21.416a9.939 9.939 0 0 1-4.11-.891c1.569 3.471 5.053 5.891 9.11 5.891H176.24c5.523 0 10-4.477 10-10v-30.994c0-15.079-6.685-28.59-17.242-37.757z"/>
  <path fill="#8C3F0A" d="m101.328 176.869-6.345 3.56 2.428 9.58h7.834l2.429-9.58z"/>
  <path fill="#995222" d="M105.245 190.009h-7.834l-6 53.217h19.834z"/>
  <path fill="#5A7A39" d="M117.495 152.232H85.161c-7.18 0-13 5.82-13 13v24.585c0 1.529 1.645 2.492 2.979 1.744l26.188-14.692 26.188 14.692c1.333.748 2.979-.216 2.979-1.744v-24.585c0-7.179-5.821-13-13-13z"/>
  <path fill="#FCC4AE" d="M101.328 137.158a45.89 45.89 0 0 1-16.167-2.929v23.59c0 .915.314 1.803.889 2.515l12.167 15.052a4.001 4.001 0 0 0 6.222 0l12.167-15.052a4.002 4.002 0 0 0 .889-2.515v-23.59a45.913 45.913 0 0 1-16.167 2.929z"/>
  <path fill="#F2AD97" d="M101.328 137.158a45.89 45.89 0 0 1-16.167-2.929v5.131a47.908 47.908 0 0 0 16.167 2.798c5.674 0 11.114-.991 16.167-2.798v-5.131a45.913 45.913 0 0 1-16.167 2.929z"/>
  <path fill="#FFD2C0" d="M55.328 65.903v25.255c0 25.405 20.595 46 46 46s46-20.595 46-46V65.903h-92z"/>
  <path fill="#FCC4AE" d="M142.328 65.903v20.255c0 25.405-20.595 46-46 46-11.43 0-21.877-4.178-29.922-11.078 8.437 9.837 20.947 16.078 34.922 16.078 25.405 0 46-20.595 46-46V65.903h-5z"/>
  <circle cx="121.328" cy="80.524" r="5.292" fill="#995222"/>
  <circle cx="81.328" cy="80.524" r="5.292" fill="#995222"/>
  <path fill="#995222" d="M101.328 114.649c6.259 0 11.333-3.026 11.333-6.76H89.995c0 3.734 5.074 6.76 11.333 6.76z"/>
  <path fill="#FFC91D" d="M147.328 65.903v7.663c2.341 0 4.543.591 6.469 1.628v-9.291h-6.469z"/>
  <path fill="#FFA91A" d="M148.798 65.903v7.755c1.792.193 3.483.719 5 1.536v-9.291h-5z"/>
  <path fill="#FFC91D" d="M147.328 100.899c-.348 0-.69-.026-1.031-.052-1.751 8.164-5.674 15.518-11.125 21.444v49.677a25.527 25.527 0 0 1-8.653 19.155l-1.373 1.209c-1.383 1.219-.521 3.501 1.322 3.501h5.095c12.28 0 22.235-9.955 22.235-22.235V99.271a13.61 13.61 0 0 1-6.47 1.628z"/>
  <path fill="#FFA91A" d="M148.798 100.807v67.792c0 12.188-9.807 22.08-21.96 22.228-.107.098-.21.201-.319.297l-1.373 1.209c-1.383 1.219-.521 3.501 1.322 3.501h5.095c12.28 0 22.235-9.955 22.235-22.235V99.271a13.597 13.597 0 0 1-5 1.536z"/>
  <path fill="#FFC91D" d="M55.328 55.903v17.663c-2.341 0-4.543.591-6.469 1.628V55.903h6.469zm0 44.996c.348 0 .69-.026 1.031-.052 1.751 8.164 5.674 15.518 11.125 21.444v49.677a25.527 25.527 0 0 0 8.653 19.155l1.373 1.209c1.383 1.219.521 3.501-1.322 3.501h-5.095c-12.28 0-22.235-9.955-22.235-22.235V99.271a13.61 13.61 0 0 0 6.47 1.628z"/>
  <path fill="#995222" d="M165.078 55.903h-127.5c-9.941 0-18 8.059-18 18 0 1.956.189 3.866.533 5.722 1.923-7.872 9.003-13.722 17.467-13.722h127.5c8.464 0 15.544 5.85 17.467 13.722.344-1.856.533-3.766.533-5.722 0-9.942-8.059-18-18-18zM55.269 28.256l-6.41 27.646h104.939l-6.41-27.646a20 20 0 0 0-19.483-15.483H74.752a20.002 20.002 0 0 0-19.483 15.483z"/>
  <path fill="#8C3F0A" d="M147.387 28.256a20 20 0 0 0-19.483-15.483h-5a20 20 0 0 1 19.483 15.483l6.41 27.646h5l-6.41-27.646z"/>
  <path fill="#F2AD97" d="M48.859 55.903h104.939l-2.372-10.229H51.23z"/>
  <path fill="#E59076" d="M151.426 45.674h-5l2.372 10.229h5z"/>
</svg>